<svg width="18" height="12" viewBox="0 0 18 12" fill="none" xmlns="http://www.w3.org/2000/svg">
<path d="M9.00484 11.8434H8.98818C8.93651 11.8434 3.76734 11.8334 2.46317 11.4792C1.74603 11.2861 1.18597 10.7257 0.993174 10.0084C0.758656 8.68538 0.645408 7.34371 0.654841 6.00008C0.648782 4.65426 0.765094 3.31067 1.00234 1.98591C1.20043 1.26801 1.75803 0.705039 2.47401 0.500081C3.74234 0.166748 8.76901 0.166748 8.98234 0.166748H8.99984C9.05234 0.166748 14.2348 0.176748 15.5257 0.530915C16.2413 0.725089 16.8002 1.28433 16.994 2.00008C17.236 3.32803 17.3496 4.6762 17.3332 6.02592C17.339 7.37011 17.2224 8.71204 16.9848 10.0351C16.7896 10.7514 16.2291 11.3106 15.5123 11.5042C14.2457 11.8401 9.21817 11.8434 9.00484 11.8434ZM7.33817 3.50425L7.33401 8.50425L11.6773 6.00425L7.33817 3.50425Z" fill="#2F80ED"/>
</svg>
