<svg width="16" height="16" viewBox="0 0 16 16" fill="none" xmlns="http://www.w3.org/2000/svg">
<path d="M8.00146 15.5342C5.95146 15.5342 5.7098 15.5233 4.9098 15.4883C4.28594 15.4678 3.67016 15.341 3.08896 15.1133C2.08339 14.722 1.28825 13.9265 0.897298 12.9208C0.678387 12.3375 0.560313 11.7212 0.548132 11.0983C0.501465 10.3 0.501465 10.0383 0.501465 8.00415C0.501465 5.94832 0.512298 5.70832 0.548132 4.91248C0.56058 4.29042 0.678649 3.67499 0.897298 3.09248C1.28782 2.08543 2.08426 1.28929 3.09146 0.89915C3.67367 0.679319 4.28925 0.560937 4.91147 0.54915C5.7073 0.50415 5.96896 0.50415 8.00146 0.50415C10.0681 0.50415 10.3056 0.514984 11.0931 0.54915C11.717 0.561039 12.3342 0.679408 12.9181 0.89915C13.9251 1.28974 14.7213 2.08571 15.1123 3.09248C15.3349 3.68348 15.4536 4.30853 15.4631 4.93998C15.5098 5.73832 15.5098 5.99915 15.5098 8.03249C15.5098 10.0658 15.4981 10.3325 15.4631 11.1217C15.4507 11.7452 15.3324 12.362 15.1131 12.9458C14.7212 13.9522 13.9248 14.748 12.9181 15.1392C12.335 15.3576 11.7191 15.4757 11.0965 15.4883C10.3006 15.5342 10.0398 15.5342 8.00146 15.5342ZM7.97313 1.82332C5.9348 1.82332 5.72313 1.83332 4.9273 1.86915C4.45229 1.87544 3.98186 1.9631 3.53646 2.12832C2.87876 2.37999 2.35832 2.89831 2.10396 3.55498C1.93748 4.00523 1.8498 4.4808 1.8448 4.96082C1.80063 5.76832 1.80063 5.97998 1.80063 8.00415C1.80063 10.0042 1.80813 10.2467 1.8448 11.0492C1.85226 11.5243 1.93988 11.9948 2.10396 12.4408C2.35869 13.0971 2.87904 13.615 3.53646 13.8667C3.98156 14.033 4.45217 14.1207 4.9273 14.1258C5.73396 14.1725 5.94647 14.1725 7.97313 14.1725C10.0173 14.1725 10.229 14.1625 11.0181 14.1258C11.4935 14.12 11.9642 14.0324 12.4098 13.8667C13.0635 13.6128 13.5806 13.0961 13.8348 12.4425C14.001 11.9919 14.0886 11.5161 14.094 11.0358H14.1031C14.139 10.2392 14.139 10.0267 14.139 7.99082C14.139 5.95498 14.1298 5.74082 14.094 4.94498C14.0865 4.47036 13.9989 4.00041 13.8348 3.55498C13.5812 2.90046 13.064 2.38273 12.4098 2.12832C11.9643 1.96227 11.4935 1.87458 11.0181 1.86915C10.2123 1.82332 10.0015 1.82332 7.97313 1.82332ZM8.00146 11.8533C6.44312 11.8543 5.03765 10.9164 4.44052 9.47703C3.84339 8.03763 4.17222 6.38026 5.27366 5.27787C6.3751 4.17548 8.03218 3.84521 9.4721 4.44109C10.912 5.03698 11.8511 6.44164 11.8515 7.99998C11.8492 10.1259 10.1273 11.8492 8.00146 11.8533ZM8.00146 5.49832C6.62075 5.49832 5.50146 6.61761 5.50146 7.99832C5.50146 9.37903 6.62075 10.4983 8.00146 10.4983C9.38218 10.4983 10.5015 9.37903 10.5015 7.99832C10.4983 6.61894 9.38085 5.50152 8.00146 5.49832ZM12.0015 4.90415C11.506 4.90231 11.1055 4.49964 11.1065 4.00416C11.1074 3.50867 11.5093 3.10749 12.0048 3.10749C12.5003 3.10749 12.9022 3.50867 12.9031 4.00415C12.9034 4.2432 12.8084 4.4725 12.6392 4.64138C12.47 4.81026 12.2405 4.90482 12.0015 4.90415Z" fill="#2F80ED"/>
</svg>
