<svg width="18" height="18" viewBox="0 0 18 18" fill="none" xmlns="http://www.w3.org/2000/svg">
<path d="M0.668457 9.00162C0.669427 13.1011 3.65046 16.5916 7.69929 17.2341V11.41H5.58512V9.00162H7.70179V7.16829C7.60717 6.29957 7.90389 5.43378 8.51149 4.80573C9.11909 4.17768 9.97458 3.85247 10.846 3.91829C11.4714 3.92839 12.0953 3.98409 12.7126 4.08496V6.13412H11.6593C11.2967 6.08663 10.9321 6.20639 10.6683 6.45968C10.4044 6.71297 10.2699 7.07236 10.3026 7.43662V9.00162H12.6118L12.2426 11.4108H10.3026V17.2341C14.6814 16.5421 17.7519 12.5431 17.2897 8.13418C16.8276 3.72526 12.9945 0.449896 8.56748 0.680938C4.14043 0.911979 0.669161 4.56855 0.668457 9.00162Z" fill="#2F80ED"/>
</svg>
