<svg width="23" height="24" viewBox="0 0 23 24" fill="none" xmlns="http://www.w3.org/2000/svg">
<path d="M20.9027 23.0395L13.2827 15.4181C9.89295 17.8281 5.22197 17.2386 2.53722 14.062C-0.147533 10.8855 0.0496006 6.18157 2.99072 3.24079C5.93107 0.298719 10.6354 0.100732 13.8126 2.78534C16.9897 5.46996 17.5795 10.1414 15.1694 13.5315L22.7894 21.1528L20.9041 23.0381L20.9027 23.0395ZM8.64672 3.56344C6.11832 3.56287 3.93698 5.33769 3.42335 7.81337C2.90973 10.289 4.205 12.7852 6.52496 13.7904C8.84491 14.7957 11.5519 14.0339 13.007 11.9662C14.4622 9.89849 14.2655 7.09321 12.5361 5.24879L13.3427 6.04879L12.4334 5.14212L12.4174 5.12612C11.4198 4.12236 10.0619 3.55963 8.64672 3.56344Z" fill="#BDBDBD"/>
</svg>
