<svg width="50" height="50" viewBox="0 0 50 50" fill="none" xmlns="http://www.w3.org/2000/svg">
<path fill-rule="evenodd" clip-rule="evenodd" d="M5 0H10V5H5V0ZM5 10V5H0V10H5ZM10 10H5V15H0V20H5V25H0V30H5V35H0V40H5V45H0V50H5V45H10V50H15V45H20V50H25V45H30V50H35V45H40V50H45V45H50V40H45V35H50V30H45V25H50V20H45V15H50V10H45V5H50V0H45V5H40V0H35V5H30V0H25V5H20V0H15V5H10V10ZM15 10V5H20V10H15ZM15 15V10H10V15H5V20H10V25H5V30H10V35H5V40H10V45H15V40H20V45H25V40H30V45H35V40H40V45H45V40H40V35H45V30H40V25H45V20H40V15H45V10H40V5H35V10H30V5H25V10H20V15H15ZM15 20H10V15H15V20ZM20 20V15H25V20H20ZM20 25V20H15V25H10V30H15V35H10V40H15V35H20V40H25V35H30V40H35V35H40V30H35V25H40V20H35V15H40V10H35V15H30V10H25V15H30V20H25V25H20ZM20 30H15V25H20V30ZM25 30H20V35H25V30ZM30 30H35V35H30V30ZM30 25H35V20H30V25ZM30 25V30H25V25H30Z" fill="#2F80ED"/>
</svg>
